<?xml version="1.0" encoding="UTF-8" standalone="no"?>
<!DOCTYPE svg PUBLIC "-//W3C//DTD SVG 1.1//EN" "http://www.w3.org/Graphics/SVG/1.1/DTD/svg11.dtd">
<!-- Generated by Microsoft Visio, SVG Export Cross-certification_diagram_es.svg Cross-Certification Diagram -->
<svg xmlns="http://www.w3.org/2000/svg" xmlns:xlink="http://www.w3.org/1999/xlink" xmlns:ev="http://www.w3.org/2001/xml-events"
		xmlns:v="http://schemas.microsoft.com/visio/2003/SVGExtensions/" width="8.33333in" height="5.83333in" viewBox="0 0 600 420"
		xml:space="preserve" color-interpolation-filters="sRGB" class="st13">
	<v:documentProperties v:langID="1034" v:viewMarkup="false"/>

	<style type="text/css">
	<![CDATA[
		.st1 {fill:#f2f2f2;stroke:#000000;stroke-width:1.22487}
		.st2 {fill:none;stroke:none;stroke-linecap:butt;stroke-width:0.75}
		.st3 {fill:#000000;font-family:Calibri;font-size:2.02126em}
		.st4 {fill:none}
		.st5 {stroke:#000000;stroke-linecap:butt;stroke-width:1.7325}
		.st6 {fill:#000000;stroke:#000000;stroke-width:0.229432}
		.st7 {stroke:#000000;stroke-width:1.7325}
		.st8 {fill:#c4d6a0;stroke:#000000;stroke-width:1.7325}
		.st9 {fill:#000000;font-family:Calibri;font-size:1.44374em}
		.st10 {fill:#f2f2f2;stroke:#000000;stroke-width:1.7325}
		.st11 {font-size:1em}
		.st12 {fill:#d5dfeb;stroke:#000000;stroke-width:1.7325}
		.st13 {fill:none;fill-rule:evenodd;font-size:12px;overflow:visible;stroke-linecap:square;stroke-miterlimit:3}
	]]>
	</style>

	<g v:mID="0" v:index="1" v:groupContext="foregroundPage">
		<title>Cross-Certification Diagram</title>
		<v:pageProperties v:drawingScale="1" v:pageScale="1" v:drawingUnits="19" v:shadowOffsetX="9" v:shadowOffsetY="-9"/>
		<g id="group1-1" transform="translate(8.11244,-9.18794)" v:mID="1" v:groupContext="group">
			<title>g6060</title>
			<g id="group2-2" transform="translate(322.151,0)" v:mID="2" v:groupContext="group">
				<title>g5890</title>
				<g id="shape3-3" v:mID="3" v:groupContext="shape">
					<title>path3246</title>
					<rect x="0" y="18.3759" width="261.624" height="401.624" class="st1"/>
				</g>
				<g id="shape4-5" v:mID="4" v:groupContext="shape" transform="translate(25.0722,-362.8)">
					<title>text3248</title>
					<desc>PKI 2</desc>
					<v:textBlock v:margins="rect(0,0,0,0)"/>
					<v:textRect cx="60.6374" cy="405.447" width="121.28" height="29.1059"/>
					<rect x="0" y="390.894" width="121.275" height="29.1059" class="st2"/>
					<text x="0" y="412.72" class="st3" v:langID="1034"><v:paragraph/><v:tabList/>PKI 2</text>				</g>
			</g>
			<g id="group5-8" v:mID="5" v:groupContext="group">
				<title>g5885</title>
				<g id="shape6-9" v:mID="6" v:groupContext="shape">
					<title>rect3069</title>
					<path d="M0 18.38 L261.62 18.38 L261.62 420 L0 420 L0 18.38 Z" class="st1"/>
				</g>
				<g id="shape7-11" v:mID="7" v:groupContext="shape" transform="translate(25.0722,-362.8)">
					<title>text3087</title>
					<desc>PKI 1</desc>
					<v:textBlock v:margins="rect(0,0,0,0)"/>
					<v:textRect cx="60.6374" cy="405.447" width="121.28" height="29.1059"/>
					<rect x="0" y="390.894" width="121.275" height="29.1059" class="st2"/>
					<text x="0" y="412.72" class="st3" v:langID="1034"><v:paragraph/><v:tabList/>PKI 1</text>				</g>
			</g>
			<g id="group8-14" transform="translate(202.279,-169.089)" v:mID="8" v:groupContext="group">
				<title>g5841</title>
				<g id="shape9-15" v:mID="9" v:groupContext="shape">
					<title>path3550</title>
					<path d="M0 420 L183.52 305.79 L0 420 Z" class="st4"/>
					<path d="M0 420 L183.52 305.79" class="st5"/>
				</g>
				<g id="shape10-18" v:mID="10" v:groupContext="shape" transform="translate(-49.9566,-37.1884) rotate(-31.9554)">
					<title>path3552</title>
					<path d="M20.43 414.66 L10.21 417.33 L0 420 L0 414.66 L0 409.33 L10.21 411.99 L20.43 414.66 Z" class="st6"/>
				</g>
			</g>
			<g id="group11-20" transform="translate(18.7149,-52.1916)" v:mID="11" v:groupContext="group">
				<title>g5354</title>
				<g id="shape12-21" v:mID="12" v:groupContext="shape">
					<title>path5339</title>
					<path d="M39.22 420 L12.55 420 C5.6 420 0 414.4 0 407.45 L0 200.96 C0 194.01 5.6 188.41 13.14 188.39 L19.8 188.37
								 L39.22 420 Z" class="st4"/>
					<path d="M39.22 420 L12.55 420 C5.6 420 0 414.4 0 407.45 L0 200.96 C0 194.01 5.6 188.41 13.14 188.39 L19.8 188.37"
							class="st7"/>
				</g>
				<g id="shape13-24" v:mID="13" v:groupContext="shape" transform="translate(19.8252,-226.248)">
					<title>path5333</title>
					<path d="M20.43 414.66 L10.21 417.33 L0 420 L0 414.66 L0 409.33 L10.21 411.99 L20.43 414.66 Z" class="st6"/>
				</g>
			</g>
			<g id="group14-26" transform="translate(383.882,-136.892)" v:mID="14" v:groupContext="group">
				<title>g5851</title>
				<g id="shape15-27" v:mID="15" v:groupContext="shape" transform="translate(6.17408,-1.13687E-13)">
					<title>rect3220</title>
					<path d="M0 405.95 A14.0476 14.0476 -180 0 0 14.05 420 L128.62 420 A14.0476 14.0476 -180 0 0 142.67 405.95 L142.67
								 367.56 A14.0476 14.0476 -180 0 0 128.62 353.51 L14.05 353.51 A14.0476 14.0476 -180 0 0 0 367.56
								 L0 405.95 Z" class="st8"/>
				</g>
				<g id="group16-29" transform="translate(1.23102E-12,-11.4031)" v:mID="16" v:groupContext="group">
					<title>g5428</title>
					<g id="shape17-30" v:mID="17" v:groupContext="shape" transform="translate(0,-21.539)">
						<title>text3224</title>
						<desc>cert. 2.1</desc>
						<v:textBlock v:margins="rect(0,0,0,0)"/>
						<v:textRect cx="77.9623" cy="409.605" width="155.93" height="20.79"/>
						<rect x="0" y="399.21" width="155.925" height="20.79" class="st2"/>
						<text x="48.96" y="414.8" class="st9" v:langID="1034"><v:paragraph v:horizAlign="1"/><v:tabList/>cert. 2.1</text>					</g>
					<g id="shape18-33" v:mID="18" v:groupContext="shape" transform="translate(42.7498,2.27374E-13)">
						<title>text3228</title>
						<desc>CA 2</desc>
						<v:textBlock v:margins="rect(0,0,0,0)"/>
						<v:textRect cx="34.6499" cy="409.605" width="69.3" height="20.79"/>
						<rect x="0" y="399.21" width="69.2999" height="20.79" class="st2"/>
						<text x="18.67" y="414.8" class="st9" v:langID="1034"><v:paragraph v:horizAlign="1"/><v:tabList/>CA 2</text>					</g>
				</g>
			</g>
			<g id="shape19-36" v:mID="19" v:groupContext="shape" transform="translate(390.056,-23.5777)">
				<title>rect3234</title>
				<path d="M-0 405.95 A14.0476 14.0476 -180 0 0 14.05 420 L128.62 420 A14.0476 14.0476 -180 0 0 142.67 405.95 L142.67
							 367.56 A14.0476 14.0476 -180 0 0 128.62 353.51 L14.05 353.51 A14.0476 14.0476 -180 0 0 -0 367.56 L0
							 405.95 Z" class="st10"/>
			</g>
			<g id="group20-38" transform="translate(383.277,-34.8919)" v:mID="20" v:groupContext="group">
				<title>g5422</title>
				<g id="shape21-39" v:mID="21" v:groupContext="shape" transform="translate(0,-21.539)">
					<title>text3238</title>
					<desc>cert. 2.2</desc>
					<v:textBlock v:margins="rect(0,0,0,0)"/>
					<v:textRect cx="77.9623" cy="409.605" width="155.93" height="20.79"/>
					<rect x="0" y="399.21" width="155.925" height="20.79" class="st2"/>
					<text x="48.96" y="414.8" class="st9" v:langID="1034"><v:paragraph v:horizAlign="1"/><v:tabList/>cert. 2.2</text>				</g>
				<g id="shape22-42" v:mID="22" v:groupContext="shape" transform="translate(25.8648,-5.68434E-14)">
					<title>text3242</title>
					<desc>Usuario 2</desc>
					<v:textBlock v:margins="rect(0,0,0,0)"/>
					<v:textRect cx="51.9749" cy="409.605" width="103.95" height="20.79"/>
					<rect x="0" y="399.21" width="103.95" height="20.79" class="st2"/>
					<text x="18.4" y="414.8" class="st9" v:langID="1034"><v:paragraph v:horizAlign="1"/><v:tabList/>Us<tspan
								class="st11" v:langID="3082">ua</tspan>r<tspan class="st11" v:langID="3082">io</tspan> 2</text>				</g>
			</g>
			<g id="group23-47" transform="translate(390.056,-250.207)" v:mID="23" v:groupContext="group">
				<title>g5859</title>
				<g id="shape24-48" v:mID="24" v:groupContext="shape">
					<title>rect3206</title>
					<path d="M0 405.95 A14.0476 14.0476 -180 0 0 14.05 420 L128.62 420 A14.0476 14.0476 -180 0 0 142.67 405.95 L142.67
								 367.56 A14.0476 14.0476 -180 0 0 128.62 353.51 L14.05 353.51 A14.0476 14.0476 -180 0 0 0 367.56
								 L0 405.95 Z" class="st8"/>
				</g>
				<g id="group25-50" transform="translate(11.1509,-11.4031)" v:mID="25" v:groupContext="group">
					<title>g5515</title>
					<g id="shape26-51" v:mID="26" v:groupContext="shape" transform="translate(0,-21.5391)">
						<title>text3210</title>
						<desc>cert. 2</desc>
						<v:textBlock v:margins="rect(0,0,0,0)"/>
						<v:textRect cx="60.6374" cy="409.605" width="121.28" height="20.79"/>
						<rect x="0" y="399.21" width="121.275" height="20.79" class="st2"/>
						<text x="38.21" y="414.8" class="st9" v:langID="1034"><v:paragraph v:horizAlign="1"/><v:tabList/>cert. 2</text>					</g>
					<g id="shape27-54" v:mID="27" v:groupContext="shape" transform="translate(25.4249,-1.7053E-13)">
						<title>text3214</title>
						<desc>CA 2</desc>
						<v:textBlock v:margins="rect(0,0,0,0)"/>
						<v:textRect cx="34.6499" cy="409.605" width="69.3" height="20.79"/>
						<rect x="0" y="399.21" width="69.2999" height="20.79" class="st2"/>
						<text x="18.67" y="414.8" class="st9" v:langID="1034"><v:paragraph v:horizAlign="1"/><v:tabList/>CA 2</text>					</g>
				</g>
			</g>
			<g id="group28-57" transform="translate(533.237,-52.1916)" v:mID="28" v:groupContext="group">
				<title>g5511</title>
				<g id="shape29-58" v:mID="29" v:groupContext="shape" transform="translate(1.03155,1.02318E-12)">
					<title>path5360</title>
					<path d="M0 420 L26.67 420 C33.62 420 39.22 414.4 39.22 407.45 L39.22 200.96 C39.22 194.01 33.62 188.41 26.08
								 188.39 L19.42 188.37 L0 420 Z" class="st4"/>
					<path d="M0 420 L26.67 420 C33.62 420 39.22 414.4 39.22 407.45 L39.22 200.96 C39.22 194.01 33.62 188.41 26.08
								 188.39 L19.42 188.37" class="st7"/>
				</g>
				<g id="shape30-61" v:mID="30" v:groupContext="shape" transform="translate(2.81775E-13,-226.248)">
					<title>path5362</title>
					<path d="M0 414.66 L10.21 417.33 L20.43 420 L20.43 414.66 L20.43 409.33 L10.21 411.99 L0 414.66 Z" class="st6"/>
				</g>
			</g>
			<g id="group31-63" transform="translate(59.4766,-250.207)" v:mID="31" v:groupContext="group">
				<title>g5877</title>
				<g id="shape32-64" v:mID="32" v:groupContext="shape">
					<title>rect3073</title>
					<path d="M-0 405.95 A14.0476 14.0476 -180 0 0 14.05 420 L128.62 420 A14.0476 14.0476 -180 0 0 142.67 405.95 L142.67
								 367.56 A14.0476 14.0476 -180 0 0 128.62 353.51 L14.05 353.51 A14.0476 14.0476 -180 0 0 0 367.56
								 L0 405.95 Z" class="st12"/>
				</g>
				<g id="group33-66" transform="translate(11.1509,-11.4031)" v:mID="33" v:groupContext="group">
					<title>g5823</title>
					<g id="shape34-67" v:mID="34" v:groupContext="shape" transform="translate(0,-21.5391)">
						<title>text3091</title>
						<desc>cert. 1</desc>
						<v:textBlock v:margins="rect(0,0,0,0)"/>
						<v:textRect cx="60.6374" cy="409.605" width="121.28" height="20.79"/>
						<rect x="0" y="399.21" width="121.275" height="20.79" class="st2"/>
						<text x="38.21" y="414.8" class="st9" v:langID="1034"><v:paragraph v:horizAlign="1"/><v:tabList/>cert. 1</text>					</g>
					<g id="shape35-70" v:mID="35" v:groupContext="shape" transform="translate(25.4249,-1.7053E-13)">
						<title>text3095</title>
						<desc>CA 1</desc>
						<v:textBlock v:margins="rect(0,0,0,0)"/>
						<v:textRect cx="34.6499" cy="409.605" width="69.3" height="20.79"/>
						<rect x="0" y="399.21" width="69.2999" height="20.79" class="st2"/>
						<text x="18.67" y="414.8" class="st9" v:langID="1034"><v:paragraph v:horizAlign="1"/><v:tabList/>CA 1</text>					</g>
				</g>
			</g>
			<g id="group36-73" transform="translate(53.3025,-136.892)" v:mID="36" v:groupContext="group">
				<title>g5868</title>
				<g id="shape37-74" v:mID="37" v:groupContext="shape" transform="translate(6.1741,-1.13687E-13)">
					<title>rect3075</title>
					<path d="M-0 405.95 A14.0476 14.0476 -180 0 0 14.05 420 L128.62 420 A14.0476 14.0476 -180 0 0 142.67 405.95 L142.67
								 367.56 A14.0476 14.0476 -180 0 0 128.62 353.51 L14.05 353.51 A14.0476 14.0476 -180 0 0 0 367.56
								 L0 405.95 Z" class="st12"/>
				</g>
				<g id="group38-76" transform="translate(1.23102E-12,-11.4031)" v:mID="38" v:groupContext="group">
					<title>g5370</title>
					<g id="shape39-77" v:mID="39" v:groupContext="shape" transform="translate(0,-21.539)">
						<title>text3117</title>
						<desc>cert. 1.1</desc>
						<v:textBlock v:margins="rect(0,0,0,0)"/>
						<v:textRect cx="77.9623" cy="409.605" width="155.93" height="20.79"/>
						<rect x="0" y="399.21" width="155.925" height="20.79" class="st2"/>
						<text x="48.96" y="414.8" class="st9" v:langID="1034"><v:paragraph v:horizAlign="1"/><v:tabList/>cert. 1.1</text>					</g>
					<g id="shape40-80" v:mID="40" v:groupContext="shape" transform="translate(42.7498,2.27374E-13)">
						<title>text3121</title>
						<desc>CA 1</desc>
						<v:textBlock v:margins="rect(0,0,0,0)"/>
						<v:textRect cx="34.6499" cy="409.605" width="69.3" height="20.79"/>
						<rect x="0" y="399.21" width="69.2999" height="20.79" class="st2"/>
						<text x="18.67" y="414.8" class="st9" v:langID="1034"><v:paragraph v:horizAlign="1"/><v:tabList/>CA 1</text>					</g>
				</g>
			</g>
			<g id="group41-83" transform="translate(52.6976,-23.5776)" v:mID="41" v:groupContext="group">
				<title>g5829</title>
				<g id="shape42-84" v:mID="42" v:groupContext="shape" transform="translate(6.77895,-1.13687E-13)">
					<title>rect3077</title>
					<path d="M-0 405.95 A14.0476 14.0476 -180 0 0 14.05 420 L128.62 420 A14.0476 14.0476 -180 0 0 142.67 405.95 L142.67
								 367.56 A14.0476 14.0476 -180 0 0 128.62 353.51 L14.05 353.51 A14.0476 14.0476 -180 0 0 0 367.56
								 L0 405.95 Z" class="st10"/>
				</g>
				<g id="group43-86" transform="translate(1.23102E-12,-11.3143)" v:mID="43" v:groupContext="group">
					<title>g5364</title>
					<g id="shape44-87" v:mID="44" v:groupContext="shape" transform="translate(0,-21.539)">
						<title>text3127</title>
						<desc>cert. 1.2</desc>
						<v:textBlock v:margins="rect(0,0,0,0)"/>
						<v:textRect cx="77.9623" cy="409.605" width="155.93" height="20.79"/>
						<rect x="0" y="399.21" width="155.925" height="20.79" class="st2"/>
						<text x="48.96" y="414.8" class="st9" v:langID="1034"><v:paragraph v:horizAlign="1"/><v:tabList/>cert. 1.2</text>					</g>
					<g id="shape45-90" v:mID="45" v:groupContext="shape" transform="translate(25.8648,2.27374E-13)">
						<title>text3131</title>
						<desc>Usuario 1</desc>
						<v:textBlock v:margins="rect(0,0,0,0)"/>
						<v:textRect cx="51.9749" cy="409.605" width="103.95" height="20.79"/>
						<rect x="0" y="399.21" width="103.95" height="20.79" class="st2"/>
						<text x="18.4" y="414.8" class="st9" v:langID="1034"><v:paragraph v:horizAlign="1"/><v:tabList/>Us<tspan
									class="st11" v:langID="3082">ua</tspan>r<tspan class="st11" v:langID="3082">io</tspan> 1</text>					</g>
				</g>
			</g>
			<g id="group46-95" transform="translate(433.067,-317.208)" v:mID="46" v:groupContext="group">
				<title>g5602</title>
				<g id="shape47-96" v:mID="47" v:groupContext="shape" transform="translate(5.59552E-14,-0.751532)">
					<title>path5600</title>
					<path d="M0 420 L0 400.58 C0 392.8 6.27 386.53 14.05 386.53 L38.01 386.53 C45.8 386.53 52.06 392.8 52.06 400.58
								 L0 420 Z" class="st4"/>
					<path d="M0 420 L0 400.58 C0 392.8 6.27 386.53 14.05 386.53 L38.01 386.53 C45.8 386.53 52.06 392.8 52.06 400.58"
							class="st7"/>
				</g>
				<g id="shape48-99" v:mID="48" v:groupContext="shape" transform="translate(466.724,399.574) rotate(90)">
					<title>path5594</title>
					<path d="M20.43 414.66 L10.21 417.33 L0 420 L0 414.66 L0 409.33 L10.21 411.99 L20.43 414.66 Z" class="st6"/>
				</g>
				<g id="shape49-101" v:mID="49" v:groupContext="shape" transform="translate(52.0617,-14.5696)">
					<title>rect5579</title>
					<path d="M0 414.4 L0 420 L0 414.4 Z" class="st4"/>
					<path d="M0 414.4 L0 420" class="st7"/>
				</g>
			</g>
			<g id="group50-104" transform="translate(102.488,-317.208)" v:mID="50" v:groupContext="group">
				<title>g5670</title>
				<g id="shape51-105" v:mID="51" v:groupContext="shape" transform="translate(5.59552E-14,-0.751532)">
					<title>path5672</title>
					<path d="M0 420 L0 400.58 C0 392.8 6.27 386.53 14.05 386.53 L38.01 386.53 C45.8 386.53 52.06 392.8 52.06 400.58
								 L0 420 Z" class="st4"/>
					<path d="M0 420 L0 400.58 C0 392.8 6.27 386.53 14.05 386.53 L38.01 386.53 C45.8 386.53 52.06 392.8 52.06 400.58"
							class="st7"/>
				</g>
				<g id="shape52-108" v:mID="52" v:groupContext="shape" transform="translate(466.724,399.574) rotate(90)">
					<title>path5674</title>
					<path d="M20.43 414.66 L10.21 417.33 L0 420 L0 414.66 L0 409.33 L10.21 411.99 L20.43 414.66 Z" class="st6"/>
				</g>
				<g id="shape53-110" v:mID="53" v:groupContext="shape" transform="translate(52.0617,-14.5696)">
					<title>path5676</title>
					<path d="M0 414.4 L0 420 L0 414.4 Z" class="st4"/>
					<path d="M0 414.4 L0 420" class="st7"/>
				</g>
			</g>
			<g id="group54-113" transform="translate(125.475,-90.1121)" v:mID="54" v:groupContext="group">
				<title>g5718</title>
				<g id="shape55-114" v:mID="55" v:groupContext="shape" transform="translate(5.33749,-1.13687E-13)">
					<title>path5689</title>
					<path d="M0 420 L0 392.64 L0 420 Z" class="st4"/>
					<path d="M0 420 L0 392.64" class="st5"/>
				</g>
				<g id="shape56-117" v:mID="56" v:groupContext="shape" transform="translate(-4.69624E-14,-25.9774)">
					<title>path5691</title>
					<path d="M5.34 399.57 L8.01 409.79 L10.67 420 L5.34 420 L0 420 L2.67 409.79 L5.34 399.57 Z" class="st6"/>
				</g>
			</g>
			<g id="group57-119" transform="translate(456.054,-90.1121)" v:mID="57" v:groupContext="group">
				<title>g5722</title>
				<g id="shape58-120" v:mID="58" v:groupContext="shape" transform="translate(5.33749,-1.13687E-13)">
					<title>path5724</title>
					<path d="M0 420 L0 392.64 L0 420 Z" class="st4"/>
					<path d="M0 420 L0 392.64" class="st5"/>
				</g>
				<g id="shape59-123" v:mID="59" v:groupContext="shape" transform="translate(-4.69624E-14,-25.9774)">
					<title>path5726</title>
					<path d="M5.34 399.57 L8.01 409.79 L10.67 420 L5.34 420 L0 420 L2.67 409.79 L5.34 399.57 Z" class="st6"/>
				</g>
			</g>
			<g id="group60-125" transform="translate(198.703,-169.089)" v:mID="60" v:groupContext="group">
				<title>g5845</title>
				<g id="shape61-126" v:mID="61" v:groupContext="shape" transform="translate(189.663,-5.68434E-13) scale(-1,1)">
					<title>path5978</title>
					<path d="M0 420 L88.49 364.93 L0 420 Z" class="st4"/>
					<path d="M0 420 L88.49 364.93" class="st5"/>
				</g>
				<g id="shape62-129" v:mID="62" v:groupContext="shape" transform="translate(92.221,-60.6393) scale(-1,1)">
					<title>path5847</title>
					<path d="M0 420 L86.08 366.43 L0 420 Z" class="st4"/>
					<path d="M0 420 L86.08 366.43" class="st5"/>
				</g>
				<g id="shape63-132" v:mID="63" v:groupContext="shape"
						transform="translate(239.619,-37.1884) rotate(31.9554) scale(-1,1)">
					<title>path5849</title>
					<path d="M20.43 414.66 L10.21 417.33 L0 420 L0 414.66 L0 409.33 L10.21 411.99 L20.43 414.66 Z" class="st6"/>
				</g>
			</g>
		</g>
	</g>
</svg>
